<svg width="1024" height="1024" xmlns="http://www.w3.org/2000/svg" t="1718726596128" class="icon" version="1.1" p-id="3896">
 <g transform="rotate(-45 512 512)">
  <title>Layer 1</title>
  <path d="m12.8,512c0,275.2512 223.9488,499.2 499.2,499.2s499.2,-223.9488 499.2,-499.2a502.1184,502.1184 0 0 0 -282.88,-449.9968a38.4,38.4 0 1 0 -33.28,69.2224a424.96,424.96 0 0 1 239.36,380.7744c0,232.9088 -189.4912,422.4 -422.4,422.4s-422.4,-189.4912 -422.4,-422.4s189.4912,-422.4 422.4,-422.4a38.4,38.4 0 0 0 0,-76.8c-275.2512,0 -499.2,223.9488 -499.2,499.2z" fill="#23c22d" p-id="3897" id="svg_1"/>
  <path d="m285.7472,466.7392a38.4,38.4 0 1 0 -54.3232,54.3232l180.992,180.992a38.2976,38.2976 0 0 0 54.272,0l325.8368,-325.7856a38.4,38.4 0 1 0 -54.3232,-54.3232l-298.7008,298.6496l-153.7536,-153.856z" fill="#23c22d" p-id="3898" id="svg_2"/>
 </g>

</svg>